<svg width="261" height="109" viewBox="0 0 261 109" fill="none" xmlns="http://www.w3.org/2000/svg">
<g style="mix-blend-mode:multiply">
<rect x="13" y="103" width="242" height="6" rx="3" fill="#D9D9D9"/>
</g>
<path d="M145.699 0.57735C151.299 0.97735 153.365 4.07735 153.699 5.57735H130.199V3.07739C129.865 2.57738 129.399 1.37735 130.199 0.57735C131.199 -0.42265 138.699 0.0773503 145.699 0.57735Z" fill="#54697C"/>
<path d="M81.6982 2.07715C76.8982 2.07715 72.6982 4.07715 71.1982 5.07715H93.1982C91.3649 4.07715 86.4982 2.07715 81.6982 2.07715Z" fill="#54697C"/>
<path fill-rule="evenodd" clip-rule="evenodd" d="M21.6986 5.07715H168.199C174.532 6.07715 187.487 11.3117 195.199 17.5771C199.746 21.2723 206.987 28.5762 213.89 35.539L213.891 35.5394L213.892 35.5405C219.131 40.8251 224.175 45.913 227.699 49.0771C227.699 49.0771 257.499 58.0771 258.699 64.0771C259.899 70.0771 260.699 88.5771 260.699 88.5771C259.699 90.0771 256.699 93.1771 252.699 93.5771C249.015 93.9455 245.332 94.6246 243.601 94.9902C243.665 94.3613 243.699 93.7231 243.699 93.0771C243.699 82.8599 235.416 74.5771 225.199 74.5771C214.981 74.5771 206.699 82.8599 206.699 93.0771C206.699 93.5797 206.719 94.0775 206.758 94.5699L78.6964 92.7871C78.5414 82.7036 70.319 74.5771 60.1986 74.5771C50.251 74.5771 42.1372 82.4284 41.7158 92.2723L27.6986 92.0771C18.8653 91.5771 0.99863 89.6771 0.19863 86.0771C-0.80137 81.5771 2.19863 35.0771 4.19863 24.0771C6.19863 13.0771 8.19861 8.07715 11.6986 6.57715C14.4986 5.37715 19.532 5.07715 21.6986 5.07715ZM196.199 27.0771C191.699 25.5771 176.199 23.5771 175.699 26.0771C175.199 28.5771 177.199 45.5771 181.199 48.0771C184.618 50.2142 205.67 54.2878 214.5 55.4998C214.5 53.2716 214.363 51.6013 214.232 50.0098C214.114 48.5616 214 47.1786 214 45.4998C206.736 36.8995 198.866 27.9662 196.199 27.0771Z" fill="#54697C"/>
<path d="M180.173 30.5771C176.89 30.5771 176.525 33.9313 176.753 35.6084C177.209 38.9626 178.532 46.3896 180.173 49.2646C181.815 52.1396 185.874 53.3376 187.698 53.5771C187.242 50.9417 185.92 45.0959 184.278 42.7959C182.226 39.9209 180.173 39.9209 181.542 39.9209C182.636 39.9209 183.822 37.0459 184.278 35.6084C184.278 33.9313 183.457 30.5771 180.173 30.5771Z" fill="#54697C"/>
<path d="M197.198 24.0771L200.198 54.5771" stroke="#54697C" stroke-width="3"/>
<path d="M246 77C248 77 248.833 72.3333 249 70L255.5 66.5L258.5 63.5C258.667 64.5 259.1 67.5 259.5 71.5C259.9 75.5 260.333 84.5 260.5 88.5C260.167 89.5 259.2 91.7 258 92.5C256.8 93.3 247.833 94.5 243.5 95C243.667 93.8333 243.7 90.5 242.5 86.5C241.3 82.5 236.333 78.5 234 77H246Z" fill="#35404B"/>
<path d="M250.698 63.0771C254.698 63.8771 256.365 67.4105 256.698 69.0771C256.365 70.0771 254.898 71.8771 251.698 71.0771C247.698 70.0771 242.198 66.5771 241.698 64.5771C241.198 62.5771 245.698 62.0771 250.698 63.0771Z" fill="#F4D969"/>
<path d="M8.19824 52.0771H3.19824L1.69824 73.0771H8.19824V52.0771Z" fill="#F4D969"/>
<g class="wheel" width="31" height="31">
<circle cx="225.198" cy="93.0771" r="15.5" fill="#54697C"/>
<g class="inner-wheel inner1">
<circle cx="225.198" cy="93.0771" r="9" stroke="#9DB0C1"/>
<circle cx="225.198" cy="93.0771" r="4" stroke="#9DB0C1"/>
<circle cx="225.198" cy="86.5771" r="0.5" stroke="#9DB0C1"/>
<circle cx="225.198" cy="99.5771" r="0.5" stroke="#9DB0C1"/>
<circle cx="231.698" cy="93.0771" r="0.5" transform="rotate(90 231.698 93.0771)" stroke="#9DB0C1"/>
<circle cx="218.698" cy="93.0771" r="0.5" transform="rotate(90 218.698 93.0771)" stroke="#9DB0C1"/>
<circle cx="229.795" cy="97.6733" r="0.5" transform="rotate(135 229.795 97.6733)" stroke="#9DB0C1"/>
<circle cx="220.602" cy="88.481" r="0.5" transform="rotate(135 220.602 88.481)" stroke="#9DB0C1"/>
<circle cx="220.602" cy="97.6737" r="0.5" transform="rotate(-135 220.602 97.6737)" stroke="#9DB0C1"/>
<circle cx="229.794" cy="88.4813" r="0.5" transform="rotate(-135 229.794 88.4813)" stroke="#9DB0C1"/>
</g>
</g>
<circle cx="60.1982" cy="93.0771" r="15.5" fill="#54697C"/>
<g class="inner-wheel inner2">
<circle cx="60.1982" cy="93.0771" r="9" stroke="#9DB0C1"/>
<circle cx="60.1982" cy="93.0771" r="4" stroke="#9DB0C1"/>
<circle cx="60.1982" cy="86.5771" r="0.5" stroke="#9DB0C1"/>
<circle cx="60.1982" cy="99.5771" r="0.5" stroke="#9DB0C1"/>
<circle cx="66.6982" cy="93.0771" r="0.5" transform="rotate(90 66.6982 93.0771)" stroke="#9DB0C1"/>
<circle cx="53.6982" cy="93.0771" r="0.5" transform="rotate(90 53.6982 93.0771)" stroke="#9DB0C1"/>
<circle cx="64.7948" cy="97.6733" r="0.5" transform="rotate(135 64.7948 97.6733)" stroke="#9DB0C1"/>
<circle cx="55.6024" cy="88.481" r="0.5" transform="rotate(135 55.6024 88.481)" stroke="#9DB0C1"/>
<circle cx="55.6016" cy="97.6737" r="0.5" transform="rotate(-135 55.6016 97.6737)" stroke="#9DB0C1"/>
<circle cx="64.7939" cy="88.4813" r="0.5" transform="rotate(-135 64.7939 88.4813)" stroke="#9DB0C1"/>
</g>
<path d="M175 63.5001L172.5 22.5001C177.333 22.1668 197.679 22.5001 200 25.0001C206.5 32.0001 208 34.0001 214 41.0001L215.5 72.0001C208.5 75.5001 203.5 81.5001 203.5 91.5001H179.5L177 68.0001L175 63.5001Z" stroke="black" stroke-opacity="0.3"/>
<path d="M178.5 58H186" stroke="black" stroke-opacity="0.3" stroke-width="2" stroke-linecap="round"/>
<path d="M109.5 24H157.5C159 24.1667 162 25 162 27C162 29 160.333 42.5 159.5 49C159.667 50.8333 158.1 54.5 150.5 54.5C142.9 54.5 120 54.5 109.5 54.5" stroke="black" stroke-opacity="0.3" stroke-linecap="round"/>
<path d="M109 24H72C70.5 24.1667 68.5 25 68.5 27C68.5 29 68 41.5 68 49C67.8333 50.8333 68 54.5 72 54.5C79.6 54.5 98.5 54.5 109 54.5" stroke="black" stroke-opacity="0.3" stroke-linecap="round"/>
<path d="M16.1196 28.5C16.9346 24.9 22.232 24 24.7789 24H58C63.7458 24 63.7458 29.0528 63.7458 29.0528L62.717 49.5C62.4476 54.8548 61.2537 54 56 54H14.5915C12.9616 54 12.8937 51.6667 13.0634 50.5C13.7426 44.6667 15.3047 32.1 16.1196 28.5Z" stroke="black" stroke-opacity="0.3" stroke-linecap="round"/>
<rect x="25" y="28.5" width="31" height="9" rx="2.5" stroke="black" stroke-opacity="0.3"/>
<path d="M41 29V37.5" stroke="black" stroke-opacity="0.3" stroke-linecap="round"/>
<path d="M8 74H0V85C0 88.6 5.33333 89.6667 8 90V74Z" fill="#35404B"/>
<path d="M8 76H53C53 76 47.5 78 44.5 83H8V76Z" fill="#35404B"/>
<path d="M67.5 76L218 76C218 76 212.5 78 209.5 83H76C73 78 67.5 76 67.5 76Z" fill="#35404B"/>
<path d="M18.3641 61.5876V65.3761H20.8802C22.159 65.3761 22.801 64.7457 22.8037 63.4814C22.8037 62.2179 22.1491 61.5876 20.838 61.5876H18.3641ZM14 59H21.7831C24.9449 59 26.5258 60.479 26.5258 63.4388C26.5258 66.3117 24.9188 67.7481 21.7075 67.7481H18.3641V70.5838L19.1285 71.5258H14L14.7311 70.5838V60.0316L14 59Z" fill="#6C93B7"/>
<path d="M30.1524 67.0058H34.3277L32.2599 62.5293L30.1524 67.0058ZM29.9769 59H34.1947L40.3039 71.5258H35.0956L35.831 70.5749L35.2684 69.2857H29.2886L28.6391 70.5749L29.3745 71.5258H24.8555L30.4011 59.9445L29.9769 59Z" fill="#6C93B7"/>
<path d="M45.0858 61.5876V65.3761H47.6019C48.8797 65.3761 49.5191 64.7457 49.5254 63.4814C49.5254 62.2179 48.8708 61.5876 47.5596 61.5876H45.0858ZM40.7217 59H48.5048C51.6665 59 53.2474 60.479 53.2474 63.4388C53.2474 66.3117 51.6405 67.7481 48.4292 67.7481H45.0858V70.5838L45.8501 71.5258H40.7217L41.4528 70.5838V60.0316L40.7217 59Z" fill="#6C93B7"/>
<path d="M56.8728 67.0058H61.0463L58.9835 62.5293L56.8728 67.0058ZM56.701 59H60.9178L67.0256 71.5258H61.8149L62.5501 70.5749L61.9876 69.2857H56.0083L55.3599 70.5749L56.0951 71.5258H51.5771L57.1251 59.9445L56.701 59Z" fill="#6C93B7"/>
<path d="M78.9908 59V63.129C77.272 62.2129 75.6257 61.7518 74.0563 61.7518C71.6833 61.7518 70.4982 63.0194 70.4982 65.5509C70.4982 68.0336 71.6561 69.2749 73.9694 69.2749C74.7595 69.2749 75.41 69.1915 75.9174 69.023V66.5241L75.1808 65.5546H79.5517V70.6621C78.1708 71.5147 76.0932 71.9433 73.3088 71.9433C68.8419 71.9433 66.6084 69.7596 66.6084 65.3924C66.6084 61.1836 69.1409 59.0834 74.2086 59.0834C75.5758 59.0834 76.8733 59.3253 78.0947 59.81L78.9908 59Z" fill="#6C93B7"/>
<path d="M87.9297 59C83.1775 59 80.8037 61.1127 80.8037 65.339C80.8037 68.6731 82.2296 70.7263 85.0679 71.5059C85.5052 71.3203 85.9696 71.1887 86.4504 71.0859C86.4676 70.254 86.4839 69.4194 86.5002 68.5775C86.3807 68.5676 86.2684 68.5577 86.1588 68.5442C85.6319 68.482 85.3069 68.1746 85.1177 67.6987C84.9746 67.3463 84.9421 66.9732 84.9384 66.5928C84.9321 65.9691 85.0516 65.3616 85.2037 64.7613C85.2472 64.5954 85.4156 64.4873 85.5821 64.5035C85.7677 64.5197 85.9135 64.6423 85.9099 64.8235C85.9099 65.038 85.8637 65.2525 85.8537 65.4706C85.8374 65.8375 85.8202 66.2007 85.8302 66.5667C85.8374 66.7785 85.8836 66.993 85.9397 67.1976C86.0131 67.468 86.1453 67.5374 86.4205 67.4914C86.4938 67.4779 86.5273 67.4518 86.5273 67.3724C86.53 67.0326 86.5364 66.6919 86.5436 66.3521C86.5599 65.4148 86.5735 64.4774 86.5898 63.5391C86.5961 63.1831 86.5961 62.8261 86.626 62.4701C86.6532 62.1366 86.961 61.8824 87.3095 61.8689C87.6309 61.8554 87.9397 62.0871 88.0121 62.4007C88.0293 62.4701 88.0356 62.5422 88.0393 62.6152C88.0592 63.5824 88.0755 64.5495 88.089 65.5166C88.089 65.6158 88.1253 65.6455 88.2149 65.659C88.5028 65.7086 88.6522 65.6293 88.7192 65.3417C88.7753 65.0912 88.8151 64.837 88.8351 64.5828C88.8713 64.1168 88.8151 63.6554 88.7318 63.1957C88.7192 63.1299 88.7291 63.0578 88.7391 62.9911C88.7653 62.8135 88.8948 62.6909 89.0704 62.6747C89.2461 62.6576 89.4054 62.7639 89.4516 62.9388C89.5648 63.3678 89.6535 63.8032 89.6933 64.2457C89.7268 64.6225 89.7304 64.9956 89.6707 65.3715C89.6209 65.6888 89.5249 65.9853 89.3294 66.2467C89.0831 66.5703 88.7454 66.7118 88.3507 66.7316C88.2774 66.7352 88.2049 66.7316 88.1153 66.7316C88.1416 68.1413 88.1687 69.541 88.195 70.9444C88.5598 70.9805 88.9147 71.0138 89.2823 71.0499C89.2959 70.3928 89.3058 69.7393 89.3194 69.0787C89.2198 69.066 89.1266 69.066 89.0369 69.0399C88.7454 68.957 88.616 68.7362 88.5562 68.4649C88.4702 68.0692 88.5327 67.6789 88.6196 67.2895C88.6295 67.2499 88.6395 67.2138 88.6495 67.1742C88.6793 67.0813 88.7554 67.0254 88.8414 67.0326C88.941 67.0426 89.0107 67.1111 89.0107 67.2201C89.0107 67.303 89.0044 67.3851 88.9872 67.4644C88.9374 67.7456 88.9446 68.0223 89.0007 68.2999C89.0442 68.5144 89.1266 68.5676 89.352 68.4946C89.352 68.1485 89.352 67.7916 89.352 67.4346C89.352 67.2796 89.352 67.1246 89.362 66.9695C89.3755 66.7848 89.4978 66.6523 89.6671 66.6297C89.8364 66.6063 89.9921 66.6992 90.0482 66.8641C90.0618 66.9038 90.0681 66.9461 90.0681 66.9894C90.0817 67.7222 90.098 68.4549 90.1116 69.1877C90.1116 69.2274 90.1116 69.267 90.1152 69.3067C90.1216 69.3563 90.0917 69.4293 90.175 69.4419C90.2574 69.4554 90.3434 69.4518 90.3769 69.3626C90.4167 69.2607 90.4565 69.1481 90.4565 69.0399C90.4602 68.792 90.4366 68.5406 90.4267 68.29C90.423 68.2269 90.4167 68.1647 90.423 68.1016C90.433 68.0124 90.4927 67.9601 90.5824 67.9502C90.672 67.9403 90.7481 67.9763 90.7716 68.062C90.8911 68.5045 90.9671 68.9507 90.8639 69.4094C90.7942 69.7159 90.5887 69.9872 90.175 69.98C90.1614 69.98 90.1478 69.9836 90.1351 69.9872C90.1351 70.0629 90.1351 70.1359 90.1351 70.2044C90.1378 70.5217 90.1451 70.839 90.1451 71.1553C90.1451 71.2346 90.1677 71.2743 90.251 71.3004C90.4529 71.3635 90.6457 71.4392 90.8377 71.5258C93.6062 70.7795 94.9996 68.765 94.9996 65.4706C95.0059 61.1596 92.6448 59 87.9297 59Z" fill="#6C93B7"/>
</svg>